# Blender v2.80 (sub 75) OBJ File: ''
# www.blender.org
mtllib Target Dummy.mtl
o Cube
v -0.250000 -1.000000 -0.105724
v -0.345071 -1.000000 -0.105724
v -0.135526 0.958439 0.105724
v -0.234895 0.856477 0.079291
v -0.345071 -1.000000 0.105724
v -0.250000 -1.000000 0.105724
v -0.234895 0.856477 -0.079291
v -0.135526 0.958439 -0.105724
v -0.500000 0.066643 -0.105724
v -0.250000 0.066643 -0.105724
v -0.250000 0.066643 0.105724
v -0.500000 0.066643 0.105724
v -0.233644 0.275483 -0.105724
v -0.135738 0.265774 -0.105724
v -0.135738 0.265774 0.105724
v -0.233644 0.275483 0.105724
v -0.269173 0.626066 -0.072656
v -0.213805 0.637205 -0.096877
v -0.213805 0.637205 0.096877
v -0.269173 0.626066 0.072656
v -0.345071 -0.362140 -0.105724
v -0.250000 -0.362140 -0.105724
v -0.250000 -0.362140 0.105724
v -0.345071 -0.362140 0.105724
v -0.143858 0.307617 -0.094884
v -0.052578 0.288743 -0.094884
v -0.052578 0.288743 0.094884
v -0.143858 0.307617 0.094884
v -0.152165 0.421579 -0.082064
v -0.086239 0.420727 -0.082064
v -0.086239 0.420727 0.082064
v -0.152165 0.421579 0.082064
v -0.282870 0.725140 -0.070223
v -0.191870 0.799128 -0.093633
v -0.191870 0.799128 0.093633
v -0.282870 0.725140 0.070223
v 0.000000 -1.000000 -0.105724
v 0.250000 -1.000000 -0.105724
v 0.345071 -1.000000 -0.105724
v 0.000000 1.000000 0.105724
v 0.135526 0.958439 0.105724
v 0.234895 0.856477 0.079291
v 0.345071 -1.000000 0.105724
v 0.250000 -1.000000 0.105724
v 0.000000 -1.000000 0.105724
v 0.234895 0.856477 -0.079291
v 0.135526 0.958439 -0.105724
v 0.000000 1.000000 -0.105724
v 0.500000 0.066643 -0.105724
v 0.250000 0.066643 -0.105724
v 0.000000 0.066643 -0.105724
v 0.000000 0.066643 0.105724
v 0.250000 0.066643 0.105724
v 0.500000 0.066643 0.105724
v 0.233644 0.275483 -0.105724
v 0.135738 0.265774 -0.105724
v 0.000000 0.237548 -0.105724
v 0.000000 0.237548 0.105724
v 0.135738 0.265774 0.105724
v 0.233644 0.275483 0.105724
v 0.269173 0.626066 -0.072656
v 0.213805 0.637205 -0.096877
v 0.000000 0.637205 -0.096877
v 0.000000 0.637205 0.096877
v 0.213805 0.637205 0.096877
v 0.269173 0.626066 0.072656
v 0.345071 -0.362140 -0.105724
v 0.250000 -0.362140 -0.105724
v 0.000000 -0.362140 -0.105724
v 0.000000 -0.362140 0.105724
v 0.250000 -0.362140 0.105724
v 0.345071 -0.362140 0.105724
v 0.143858 0.307617 -0.094884
v 0.052578 0.288743 -0.094884
v 0.000000 0.272992 -0.094884
v 0.000000 0.272992 0.094884
v 0.052578 0.288743 0.094884
v 0.143858 0.307617 0.094884
v 0.152165 0.421579 -0.082064
v 0.086239 0.420727 -0.082064
v 0.000000 0.420781 -0.082064
v 0.000000 0.420781 0.082064
v 0.086239 0.420727 0.082064
v 0.152165 0.421579 0.082064
v 0.282870 0.725140 -0.070223
v 0.191870 0.799128 -0.093633
v 0.000000 0.832408 -0.112745
v 0.000000 0.832408 0.112745
v 0.191870 0.799128 0.093633
v 0.282870 0.725140 0.070223
vt 0.857505 0.562500
vt 0.875000 0.562500
vt 0.875000 0.593750
vt 0.857505 0.593750
vt 0.875000 0.625000
vt 0.857505 0.625000
vt 0.437500 0.750000
vt 0.468750 0.750000
vt 0.468750 1.000000
vt 0.437500 1.000000
vt 0.500000 0.750000
vt 0.500000 1.000000
vt 0.607505 0.375000
vt 0.625000 0.375000
vt 0.625000 0.406250
vt 0.607505 0.406250
vt 0.625000 0.437500
vt 0.607505 0.437500
vt 0.500000 0.000000
vt 0.531250 0.000000
vt 0.531250 0.250000
vt 0.500000 0.250000
vt 0.562500 0.000000
vt 0.562500 0.250000
vt 0.464425 0.406250
vt 0.524538 0.406250
vt 0.524538 0.437500
vt 0.464425 0.437500
vt 0.464425 0.375000
vt 0.524538 0.375000
vt 0.714425 0.593750
vt 0.774538 0.593750
vt 0.774538 0.625000
vt 0.714425 0.625000
vt 0.714425 0.562500
vt 0.774538 0.562500
vt 0.550986 0.406250
vt 0.550986 0.437500
vt 0.550986 0.375000
vt 0.800986 0.593750
vt 0.800986 0.625000
vt 0.800986 0.562500
vt 0.563232 0.406250
vt 0.579271 0.406250
vt 0.579271 0.437500
vt 0.563232 0.437500
vt 0.563232 0.375000
vt 0.579271 0.375000
vt 0.813232 0.593750
vt 0.829271 0.593750
vt 0.829271 0.625000
vt 0.813232 0.625000
vt 0.813232 0.562500
vt 0.829271 0.562500
vt 0.639051 0.637874
vt 0.489549 0.663621
vt 0.625000 0.562500
vt 0.625000 0.593750
vt 0.625000 0.625000
vt 0.375000 0.375000
vt 0.375000 0.406250
vt 0.375000 0.437500
vt 0.554437 0.437500
vt 0.804437 0.562500
vt 0.804437 0.593750
vt 0.804437 0.625000
vt 0.554437 0.375000
vt 0.554437 0.406250
vt 0.857505 0.562500
vt 0.857505 0.593750
vt 0.875000 0.593750
vt 0.875000 0.562500
vt 0.437500 0.750000
vt 0.437500 1.000000
vt 0.468750 1.000000
vt 0.468750 0.750000
vt 0.607505 0.406250
vt 0.625000 0.406250
vt 0.607505 0.437500
vt 0.625000 0.437500
vt 0.531250 0.250000
vt 0.531250 0.000000
vt 0.562500 0.250000
vt 0.562500 0.000000
vt 0.464425 0.406250
vt 0.464425 0.437500
vt 0.524538 0.437500
vt 0.524538 0.406250
vt 0.714425 0.593750
vt 0.774538 0.593750
vt 0.714425 0.562500
vt 0.774538 0.562500
vt 0.550986 0.437500
vt 0.550986 0.406250
vt 0.800986 0.593750
vt 0.800986 0.562500
vt 0.563232 0.406250
vt 0.563232 0.437500
vt 0.579271 0.437500
vt 0.579271 0.406250
vt 0.813232 0.593750
vt 0.829271 0.593750
vt 0.813232 0.562500
vt 0.829271 0.562500
vt 0.639051 0.637874
vt 0.489549 0.663621
vt 0.625000 0.562500
vt 0.625000 0.593750
vt 0.375000 0.406250
vt 0.375000 0.437500
vt 0.804437 0.562500
vt 0.554437 0.437500
vt 0.804437 0.593750
vt 0.554437 0.406250
vn -0.2794 0.0304 -0.9597
vn -0.0570 -0.0057 -0.9984
vn 0.0000 -1.0000 0.0000
vn -0.0570 -0.0057 0.9984
vn -0.2794 0.0304 0.9597
vn -0.2932 0.9561 0.0000
vn -0.7162 0.6979 0.0000
vn 0.0000 0.0000 1.0000
vn 0.0000 0.0000 -1.0000
vn -0.1846 -0.1198 0.9755
vn 0.0000 -0.0683 0.9977
vn 0.0000 -0.0683 -0.9977
vn -0.1846 -0.1198 -0.9755
vn -0.9405 -0.3398 0.0000
vn -0.6170 0.7869 0.0000
vn -0.8680 -0.4966 0.0000
vn -0.9906 -0.1370 0.0000
vn -1.0000 0.0000 0.0000
vn -0.3370 0.9415 0.0000
vn 0.0389 0.2577 -0.9654
vn 0.0625 0.2678 -0.9614
vn 0.0625 0.2678 0.9614
vn 0.0389 0.2577 0.9654
vn -0.9974 -0.0727 0.0000
vn 0.0133 0.1059 -0.9943
vn 0.0105 0.0925 -0.9957
vn 0.0105 0.0925 0.9957
vn 0.0133 0.1059 0.9943
vn -0.9393 0.3431 0.0000
vn -0.3255 0.0308 0.9451
vn -0.0444 -0.0326 0.9985
vn -0.0444 -0.0326 -0.9985
vn -0.3255 0.0308 -0.9451
vn 0.2794 0.0304 -0.9597
vn 0.0570 -0.0057 -0.9984
vn 0.0570 -0.0057 0.9984
vn 0.2794 0.0304 0.9597
vn 0.2932 0.9561 0.0000
vn 0.7162 0.6979 0.0000
vn 0.1846 -0.1198 0.9755
vn 0.1846 -0.1198 -0.9755
vn 0.9405 -0.3398 0.0000
vn 0.6170 0.7869 0.0000
vn 0.8680 -0.4966 0.0000
vn 0.9906 -0.1370 0.0000
vn 1.0000 0.0000 0.0000
vn 0.3370 0.9415 0.0000
vn -0.0389 0.2577 -0.9654
vn -0.0625 0.2678 -0.9614
vn -0.0625 0.2678 0.9614
vn -0.0389 0.2577 0.9654
vn 0.9974 -0.0727 0.0000
vn -0.0133 0.1059 -0.9943
vn -0.0105 0.0925 -0.9957
vn -0.0105 0.0925 0.9957
vn -0.0133 0.1059 0.9943
vn 0.9393 0.3431 0.0000
vn 0.3255 0.0308 0.9451
vn 0.0444 -0.0326 0.9985
vn 0.0444 -0.0326 -0.9985
vn 0.3255 0.0308 -0.9451
usemtl Material
s off
f 33/1/1 7/2/1 8/3/1 34/4/1
f 34/4/2 8/3/2 48/5/2 87/6/2
f 2/7/3 1/8/3 6/9/3 5/10/3
f 1/8/3 37/11/3 45/12/3 6/9/3
f 88/13/4 40/14/4 3/15/4 35/16/4
f 35/16/5 3/15/5 4/17/5 36/18/5
f 48/19/6 8/20/6 3/21/6 40/22/6
f 8/20/7 7/23/7 4/24/7 3/21/7
f 23/25/8 11/26/8 12/27/8 24/28/8
f 70/29/8 52/30/8 11/26/8 23/25/8
f 22/31/9 10/32/9 51/33/9 69/34/9
f 21/35/9 9/36/9 10/32/9 22/31/9
f 11/26/8 15/37/8 16/38/8 12/27/8
f 52/30/8 58/39/8 15/37/8 11/26/8
f 10/32/9 14/40/9 57/41/9 51/33/9
f 9/36/9 13/42/9 14/40/9 10/32/9
f 31/43/10 19/44/10 20/45/10 32/46/10
f 82/47/11 64/48/11 19/44/11 31/43/11
f 30/49/12 18/50/12 63/51/12 81/52/12
f 29/53/13 17/54/13 18/50/13 30/49/13
f 21/55/14 24/56/14 12/27/14 9/36/14
f 9/36/15 12/27/15 16/38/15 13/42/15
f 29/53/16 32/46/16 20/45/16 17/54/16
f 36/18/17 33/1/17 17/54/17 20/45/17
f 2/7/18 5/10/18 24/56/18 21/55/18
f 2/57/9 21/35/9 22/31/9 1/58/9
f 1/58/9 22/31/9 69/34/9 37/59/9
f 45/60/8 70/29/8 23/25/8 6/61/8
f 6/61/8 23/25/8 24/28/8 5/62/8
f 13/42/19 16/38/19 28/63/19 25/64/19
f 13/42/20 25/64/20 26/65/20 14/40/20
f 14/40/21 26/65/21 75/66/21 57/41/21
f 58/39/22 76/67/22 27/68/22 15/37/22
f 15/37/23 27/68/23 28/63/23 16/38/23
f 25/64/24 28/63/24 32/46/24 29/53/24
f 25/64/25 29/53/25 30/49/25 26/65/25
f 26/65/26 30/49/26 81/52/26 75/66/26
f 76/67/27 82/47/27 31/43/27 27/68/27
f 27/68/28 31/43/28 32/46/28 28/63/28
f 4/17/29 7/2/29 33/1/29 36/18/29
f 19/44/30 35/16/30 36/18/30 20/45/30
f 64/48/31 88/13/31 35/16/31 19/44/31
f 18/50/32 34/4/32 87/6/32 63/51/32
f 17/54/33 33/1/33 34/4/33 18/50/33
f 85/69/34 86/70/34 47/71/34 46/72/34
f 86/70/35 87/6/35 48/5/35 47/71/35
f 39/73/3 43/74/3 44/75/3 38/76/3
f 38/76/3 44/75/3 45/12/3 37/11/3
f 88/13/36 89/77/36 41/78/36 40/14/36
f 89/77/37 90/79/37 42/80/37 41/78/37
f 48/19/38 40/22/38 41/81/38 47/82/38
f 47/82/39 41/81/39 42/83/39 46/84/39
f 71/85/8 72/86/8 54/87/8 53/88/8
f 70/29/8 71/85/8 53/88/8 52/30/8
f 68/89/9 69/34/9 51/33/9 50/90/9
f 67/91/9 68/89/9 50/90/9 49/92/9
f 53/88/8 54/87/8 60/93/8 59/94/8
f 52/30/8 53/88/8 59/94/8 58/39/8
f 50/90/9 51/33/9 57/41/9 56/95/9
f 49/92/9 50/90/9 56/95/9 55/96/9
f 83/97/40 84/98/40 66/99/40 65/100/40
f 82/47/11 83/97/11 65/100/11 64/48/11
f 80/101/12 81/52/12 63/51/12 62/102/12
f 79/103/41 80/101/41 62/102/41 61/104/41
f 67/105/42 49/92/42 54/87/42 72/106/42
f 49/92/43 55/96/43 60/93/43 54/87/43
f 79/103/44 61/104/44 66/99/44 84/98/44
f 90/79/45 66/99/45 61/104/45 85/69/45
f 39/73/46 67/105/46 72/106/46 43/74/46
f 39/107/9 38/108/9 68/89/9 67/91/9
f 38/108/9 37/59/9 69/34/9 68/89/9
f 45/60/8 44/109/8 71/85/8 70/29/8
f 44/109/8 43/110/8 72/86/8 71/85/8
f 55/96/47 73/111/47 78/112/47 60/93/47
f 55/96/48 56/95/48 74/113/48 73/111/48
f 56/95/49 57/41/49 75/66/49 74/113/49
f 58/39/50 59/94/50 77/114/50 76/67/50
f 59/94/51 60/93/51 78/112/51 77/114/51
f 73/111/52 79/103/52 84/98/52 78/112/52
f 73/111/53 74/113/53 80/101/53 79/103/53
f 74/113/54 75/66/54 81/52/54 80/101/54
f 76/67/55 77/114/55 83/97/55 82/47/55
f 77/114/56 78/112/56 84/98/56 83/97/56
f 42/80/57 90/79/57 85/69/57 46/72/57
f 65/100/58 66/99/58 90/79/58 89/77/58
f 64/48/59 65/100/59 89/77/59 88/13/59
f 62/102/60 63/51/60 87/6/60 86/70/60
f 61/104/61 62/102/61 86/70/61 85/69/61
